/* XPM */
static char *result[] = {
/* columns rows colors chars-per-pixel */
"64 64 195 2 ",
"   c #151C2E",
".  c #191D2F",
"X  c #1C1E30",
"o  c #221F31",
"O  c #1D2232",
"+  c #232333",
"@  c #2C2333",
"#  c #262936",
"$  c #2C2D39",
"%  c #2A2938",
"&  c #342435",
"*  c #3B2536",
"=  c #392A39",
"-  c #2D313A",
";  c #33323C",
":  c #3B3A3F",
">  c #3F323C",
",  c #422637",
"<  c #4C2A3B",
"1  c #5C2D3D",
"2  c #51383E",
"3  c #44313B",
"4  c #632F3F",
"5  c #6A303F",
"6  c #3D3A41",
"7  c #433B43",
"8  c #503547",
"9  c #673944",
"0  c #723341",
"q  c #7C3543",
"w  c #7B3B45",
"e  c #753C56",
"r  c #6F3956",
"t  c #434145",
"y  c #494247",
"u  c #4E4C4B",
"i  c #4C474A",
"p  c #534A4A",
"a  c #5A4F4F",
"s  c #545552",
"d  c #5A5657",
"f  c #7E4147",
"g  c #6A5A54",
"h  c #715F59",
"j  c #76635B",
"k  c #7B665E",
"l  c #7D6B5D",
"z  c #7F705D",
"x  c #5D5867",
"c  c #7F6A60",
"v  c #7D7A69",
"b  c #6C6875",
"n  c #863746",
"m  c #893846",
"M  c #893C48",
"N  c #9B3D4A",
"B  c #943B49",
"V  c #9E3F51",
"C  c #A43F4C",
"Z  c #844B4B",
"A  c #965752",
"S  c #884855",
"D  c #A9404E",
"F  c #B0424F",
"G  c #BD4552",
"H  c #B9485A",
"J  c #A64E58",
"K  c #8F645B",
"L  c #A06459",
"P  c #9D486B",
"I  c #984565",
"U  c #BF4B62",
"Y  c #AE4E73",
"T  c #B54F75",
"R  c #BC4F72",
"E  c #B45076",
"W  c #BC5173",
"Q  c #AE5468",
"!  c #846D62",
"~  c #9A6C63",
"^  c #8C7265",
"/  c #877A65",
"(  c #917768",
")  c #947A6A",
"_  c #997C6B",
"`  c #987965",
"'  c #B76D66",
"]  c #A17669",
"[  c #C44653",
"{  c #C24956",
"}  c #CA4B5E",
"|  c #D54A56",
" . c #D94B57",
".. c #DD4C58",
"X. c #DC525A",
"o. c #DB555C",
"O. c #C7545B",
"+. c #E64F5B",
"@. c #E94F5B",
"#. c #E4535D",
"$. c #EE515C",
"%. c #E95C5E",
"&. c #F0525C",
"*. c #F1595F",
"=. c #CB6E5F",
"-. c #D8625E",
";. c #C44F6F",
":. c #CC4F6A",
">. c #C6506E",
",. c #CB516C",
"<. c #DB5064",
"1. c #D25169",
"2. c #D85664",
"3. c #C25070",
"4. c #C45A73",
"5. c #E45162",
"6. c #EA5561",
"7. c #EC5B62",
"8. c #F15E60",
"9. c #C56965",
"0. c #D5686A",
"q. c #C77261",
"w. c #D97563",
"e. c #CC6373",
"r. c #CB6E79",
"t. c #D16472",
"y. c #D67879",
"u. c #EB6366",
"i. c #EF6C69",
"p. c #E96866",
"a. c #F26362",
"s. c #F46B64",
"d. c #E97A6A",
"f. c #F67366",
"g. c #F47469",
"h. c #F67C6B",
"j. c #F87D69",
"k. c #F37F70",
"l. c #E17974",
"z. c #9D846C",
"x. c #9A8569",
"c. c #8F8A74",
"v. c #9F8475",
"b. c #979077",
"n. c #A1846F",
"m. c #A68C74",
"M. c #AA8A72",
"N. c #AE9372",
"B. c #A3967C",
"V. c #B29676",
"C. c #BC9D79",
"Z. c #B79A79",
"A. c #BEA37B",
"S. c #D7837E",
"D. c #F9836C",
"F. c #F8866E",
"G. c #F88C74",
"H. c #F48773",
"J. c #FA9374",
"K. c #FB9C79",
"L. c #FA9577",
"P. c #EA937C",
"I. c #C2A57A",
"U. c #CCAC7F",
"Y. c #FCA27C",
"T. c #FDA87F",
"R. c #A59C91",
"E. c #B1A082",
"W. c #B7B9BF",
"Q. c #C1AC87",
"!. c #CCB185",
"~. c #D6B684",
"^. c #D7B987",
"/. c #D8B886",
"(. c #C7BB92",
"). c #D0BD94",
"_. c #FEAF82",
"`. c #F4AC85",
"'. c #FDB283",
"]. c #FFB987",
"[. c #FFBC88",
"{. c #D1BDA9",
"}. c #CBBBAC",
"|. c #D8C899",
" X c #CAC096",
".X c #E3CE9A",
"XX c #E5D19D",
"oX c #ECDBA5",
"OX c #E7D9A6",
"+X c #EFE1AB",
"@X c #F0E2AC",
"#X c #CFC8C4",
"$X c #DBDDE0",
"%X c #F9F9F9",
"&X c None",
/* pixels */
"&X&X&X&X&X&X&X&X&X&X&X&X&X&X&X&X&X&X&X&X&X&X&X&X&X&X&X&X&X&X&X&X&X&X&X&X&X&X&X&X&X&X&X&X&X&X&X&X&X&X&X&X&X&X&X&X&X&X&X&X&X&X&X&X",
"&X&X&X&X&X&X&X&X&X&X&X&X&X&X&X&X&X&X&X&X&X&X&X&X&X&X&X&X&X&X&X&X&X&X&X&X&X&X&X&X&X&X&X&X&X&X&X&X&X&X&X&X&X&X&X&X&X&X&X&X&X&X&X&X",
"&X&X&X&X&X&X&X&X&X&X&X&X&X&X&X&X&X&X&X&X&X&X&X&X&X&X&X&X&X&X&X&X&X&X&X&X&X&X&X&X&X&X&X&X&X&X&X&X&X&X&X&X&X&X&X&X&X&X&X&X&X&X&X&X",
"&X&X&X&X&X&X&X&X&X&X&X&X&X&X&X&X&X&X&X&X&X&X&X&X&X&X&X&X&X&X&X&X&X&X&X&X&X&X&X&X&X&X&X&X&X&X&X&X&X&X&X&X&X&X&X&X&X&X&X&X&X&X&X&X",
"&X&X&X&X&X&X&X&X&X&X&X&X&X&X&X&X&X&X&X&X&X&X&X&X&X&X&X&X&X&X&X&X&X&X&X&X&X&X&X&X&X&X&X&X&X&X&X&X&X&X&X&X&X&X&X&X&X&X&X&X&X&X&X&X",
"&X&X&X&X&X&X&X&X&X&X&X&X&X&X&X&X&X&X&X&X&X&X&X&X&X&X&X&X&X&X&X&X&X&X&X&X&X&X&X&X&X&X&X&X&X&X&X&X&X&X&X&X&X&X&X&X&X&X&X&X&X&X&X&X",
"&X&X&X&X&X&X&X&X&X&X&X&X&X&X&X&X&X&X&X&X&X&X&X&X&X&X&X&X&X&X&X&X&X&X&X&X&X&X&X&X&X&X&X&X&X&X&X&X&X&X&X&X&X&X&X&X&X&X&X&X&X&X&X&X",
"&X&X&X&X&X&X&X&X&X&X&X&X&X&X&X&X&X&X&X&X&X&X&X&X&X&X&X&X&X&X&X&X&X&X&X&X&X&X&X&X&X&X&X&X&X&X&X&X&X&X&X&X&X&X&X&X&X&X&X&X&X&X&X&X",
"&X&X&X&X&X&X&X&X&X&X&X&X&X&X&X&X&X&X&X&X&X&X&X&X&X&X&X&X&X&X&X&X&X&X&X&X&X&X&X&X&X&X&X&X&X&X&X&X&X&X&X&X&X&X&X&X&X&X&X&X&X&X&X&X",
"&X&X&X&X&X&X&X&X&X&X&X&X&X&X&X&X&X&X&X&X&X&X&X&X&X&X&X&X&X&X&X&X&X&X&X&X&X&X&X&X&X&X&X&X&X&X&X&X&X&X&X&X&X&X&X&X&X&X&X&X&X&X&X&X",
"&X&X&X&X&X&X&X&X&X&X&X&X&X&X&X&X&X&X&X&X&X&X&X&X&X&X&X&X&X&X&X&X&X&X&X&X&X&X&X&X&X&X&X&X&X&X&X&X&X&X&X&X&X&X&X&X&X&X&X&X&X&X&X&X",
"&X&X&X&X&X&X&X&X&X&X&X&X&X&X&X&X&X&X&X&X&X&X&X&X&X&X&X&X&X&X&X&X&X&X&X&X&X&X&X&X&X&X&X&X&X&X&X&X&X&X&X&X&X&X&X&X&X&X&X&X&X&X&X&X",
"&X&X&X&X&X&X&X&X&X&X&X&X&X&X&X&X&X&X&X&X&X&X&X&X&X&X&X&X&X&X&X&X&X&X&X&X&X&X&X&X&X&X&X&X&X&X&X&X&X&X&X&X&X&X&X&X&X&X&X&X&X&X&X&X",
"&X&X&X&X&X&X&X&X&X&X&X&X&X&X&X&X&X&X&X&X&X&X&X&X&X&X&X&X&X&X&X&X&X&X&X&X&X&X&X&X&X&X&X&X&X&X&X&X&X&X&X&X&X&X&X&X&X&X&X&X&X&X&X&X",
"&X&X&X&X&X&X&X&X&X&X&X&X&X&X&X&X&X&X&X&X&X&X&X&X&X&X&X&X&X&X&X&X&X&X&X&X&X&X&X&X&X&X&X&X&X&X&X&X&X&X&X&X&X&X&X&X&X&X&X&X&X&X&X&X",
"&X&X&X&X&X&X&X&X&X&X&X&X&X&X&X&X&X&X&X&X&X&X&X&X&X&X&X&X&X&X&X&X&X&X&X&X&X&X&X&X&X&X&X&X&X&X&X&X&X&X&X&X&X&X&X&X&X&X&X&X&X&X&X&X",
"&X&X&X&X&X&X&X&X&X&X&X&X&X&X&X&X&X&X&X&X&X&X&X&X&X&X&X&X&X&X&X&X&X&X&X&X&X&X&X&X&X&X&X&X&X&X&X&X&X&X&X&X&X&X&X&X&X&X&X&X&X&X&X&X",
"&X&X&X&X&X&X&X&X&X&X&X&X&X&X&X&X&X&X&X&X&X&X&X&X&X&X&X&X&X                          &X&X&X&X&X&X&X&X&X&X&X&X&X&X&X&X&X&X&X&X&X&X",
"&X&X&X&X&X&X&X&X&X&X&X&X&X&X&X&X&X&X&X&X&X&X&X&X&X&X&X    .       < q Z S Z q q <         &X&X&X&X&X&X&X&X&X&X&X&X&X&X&X&X&X&X&X",
"&X&X&X&X&X&X&X&X&X&X&X&X&X&X&X&X&X&X&X&X&X&X&X&X&X    . X @ q m m G &.g.D.h.$.&.G m n @     . &X&X&X&X&X&X&X&X&X&X&X&X&X&X&X&X&X",
"&X&X&X&X&X&X&X&X&X&X&X&X&X&X&X&X&X&X&X&X&X&X&X&XX   o 0 B C @.5.1.,.,.t.k.k.&.6.$.&.#.D n @     &X&X&X&X&X&X&X&X&X&X&X&X&X&X&X&X",
"&X&X&X&X&X&X&X&X&X&X&X&X&X&X&X&X&X&X&X&X&X&X&X    o q +.6.5.>.3.E E E E 4.g.6.>.;.<.&.&.#.N @       &X&X&X&X&X&X&X&X&X&X&X&X&X&X",
"&X&X&X&X&X&X&X&X&X&X&X&X&X&X&X&X&X&X&X&X&X&X&X  o q +.$.>.R E E E E E E W i.6.W E W 5.$.$.$.D = +     &X&X&X&X&X&X&X&X&X&X&X&X&X",
"&X&X&X&X&X&X&X&X&X&X&X&X&X&X&X&X&X&X&X&X&X&X  O w ..$.5.3.E R R E E E P I H C U W T <.$.$.$.*.w.Z @   &X&X&X&X&X&X&X&X&X&X&X&X&X",
"&X&X&X&X&X&X&X&X&X&X&X&X&X&X&X&X&X&X&X&X&X&X  2 u.&.$.$.:.:.6.<.>.>.I 7 x b g 9 U ;.5.$.$.&.s.D.p.4     &X&X&X&X&X&X&X&X&X&X&X&X",
"&X&X&X&X&X&X&X&X&X&X&X&X&X&X&X&X&X&X&X&X&X&X+ A h.a.$.$.$.$.$.$.$.G < b $X%X#Xy 1 [ $.$.&.g.D.j.*.N @     &X&X&X&X&X&X&X&X&X&X&X",
"&X&X&X&X&X&X&X&X&X&X&X&X&X&X&X&X&X&X&X&X&X  3 d.K.K.a.&.&.$.&.$.$.q # W.%X#X X! o A F.H.G.T.F.f.&.$.B o   &X&X&X&X&X&X&X&X&X&X&X",
"&X&X&X&X&X&X&X&X&X&X&X&X&X&X&X&X&X&X&X&X  + f 0.K.].k.6.&.a.g.G.D.f O R.{.v.N.! O ` [.].Y.J.f.*.$.&...,   &X&X&X&X&X&X&X&X&X&X&X",
"&X&X&X&X&X&X&X&X&X&X&X&X&X&X&X&X&X&X&X  % e Y E l._.`.h.f.j.J.'.K.Z X u n.N.x.t o L J.h.i.a.5.,.:.#...*   &X&X&X&X&X&X&X&X&X&X&X",
"&X&X&X&X&X&X&X&X&X&X&X&X&X&X&X&X&X  o * C <.E E ,.G.'.L.a.7.7.s.a.X.5 X ; t - o q X.7.,.;.<.W T E 1...,   &X&X&X&X&X&X&X&X&X&X&X",
"&X&X&X&X&X&X&X&X&X&X&X&X&X&X&X    o m  .$.$.3.T t._.].H.>.R ;.$.$.&.| 4 & & & w ..$.,.E E W T E E W } ,     &X&X&X&X&X&X&X&X&X&X",
"&X&X&X&X&X&X&X&X&X&X&X&X&X    o , m @.&.6.&.5.3.y.'.`.r.E T :.$.$.$.$.+.| o.w.d.s.$.>.E E E E E E T } ,     &X&X&X&X&X&X&X&X&X&X",
"&X&X&X&X&X&X&X&X&X&X&X&X    . q  .@.&.$.$.$.$.6.L.].S.E E 3.5.&.$.$.$.&.&.*.f.j.D.u.,.W E E E E E 3.} ,     &X&X&X&X&X&X&X&X&X&X",
"&X&X&X&X&X&X&X&X&X&X&X    + q ..$.$.$.$.$.$.$.g.'._.y.E >.1.$.&.$.+.1.<.$.$.&.s.D.f.7.W E T E E 3.<.C @     &X&X&X&X&X&X&X&X&X&X",
"&X&X&X&X&X&X&X&X&X&X&X  X * o.f.8.$.$.$.&.$.*.J.].P.4.,.5.&.&.5.1.;.E E 1.$.$.s.D.D.8.1.T T W 1.D q *       &X&X&X&X&X&X&X&X&X&X",
"&X&X&X&X&X&X&X&X&X&X    o M d.J.K.f.&.6.s.s.f.h.k.p.<.5.6.1.:.;.E E W E W #.$.8.j.F.a.@.<.<.<.+.0   + y +   &X&X&X&X&X&X&X&X&X&X",
"&X&X&X&X&X&X&X&X&X&X  X B @.a._.]._.K.D.D.D.j.&.&.&.$.$.5.W E E E t.l.4.R 5.$.$.h.T.s.$.&.&.{ 9 > # a k #   &X&X&X&X&X&X&X&X&X&X",
"&X&X&X&X&X&X&X&X&X&X  + C 6.6.u.H.'._.G.g.a.*.$.a.a.&.6.;.E E E e.F.D.4.R $.$.$.H.].f.+.#.2.~ l k c ! 7 .   &X&X&X&X&X&X&X&X&X&X",
"&X&X&X&X&X&X&X&X&X&X  X N #.;.R W t.7.7.8.$.&.$.s.D.a.5.R E Y P Q w.q.Q P 5.$.a.K._.-.0 ~ ] _ n._ _ ^ $   &X&X&X&X&X&X&X&X&X&X&X",
"&X&X&X&X&X&X&X&X&X&X    * { ;.E E T R <.$.&.$.*.j.D.i.,.P I r % & @ 7 7 9 O.2.-.q.q.a h m.m.V.!.V._ c %   &X&X&X&X&X&X&X&X&X&X&X",
"&X&X&X&X&X&X&X&X&X&X    @ [ 6.:.E E E T 1.$.&.&.a.q.S r & + X % y y K ( ^ ` ] g + # d E.OX|.~.~.Z.j ;     &X&X&X&X&X&X&X&X&X&X&X",
"&X&X&X&X&X&X&X&X&X&X    o 0 m V :.;.E E R 5.$.5.q.K = O 7 p p h ) x.C.I.V.Z.Q.B.v /  X+X@XoX/.N.g -     &X&X&X&X&X&X&X&X&X&X&X&X",
"&X&X&X&X&X&X&X&X&X&X.     .   & C <.1.1.1.9.9.' _ M./ g ^ _ _ _ _ _ C.~.~./..X+X+X+X+X+X+X+XE.p O     &X&X&X&X&X&X&X&X&X&X&X&X&X",
"&X&X&X&X&X&X&X&X&X&X    O y # . & 5 0 L ' N.E.A.C.U.~.N.( ( ( ) ( ( C././.~..X+X+X+XOXOX|.v s .     &X&X&X&X&X&X&X&X&X&X&X&X&X&X",
"&X&X&X&X&X&X&X&X&X&X.   + j j a @ O % k m.).+X.X/.U.A.N.p 6 6 : 6 6 / I.I.A.U.|.|.c.d s u O       &X&X&X&X&X&X&X&X&X&X&X&X&X&X&X",
"&X&X&X&X&X&X&X&X&X&X&X    ; k ! c ! z.I.!.oX@XXXA.l : : O           $ : : : 6 7 t #         &X&X&X&X&X&X&X&X&X&X&X&X&X&X&X&X&X&X",
"&X&X&X&X&X&X&X&X&X&X&X&X  X # t k c V.~./.(.(.b.: +       &X&X&X&X                    &X&X&X&X&X&X&X&X&X&X&X&X&X&X&X&X&X&X&X&X&X",
"&X&X&X&X&X&X&X&X&X&X&X&X&X      + # g z./ 6 - #       &X&X&X&X&X&X&X&X&X&X&X&X&X&X&X&X&X&X&X&X&X&X&X&X&X&X&X&X&X&X&X&X&X&X&X&X&X",
"&X&X&X&X&X&X&X&X&X&X&X&X&X&X        O O O           &X&X&X&X&X&X&X&X&X&X&X&X&X&X&X&X&X&X&X&X&X&X&X&X&X&X&X&X&X&X&X&X&X&X&X&X&X&X",
"&X&X&X&X&X&X&X&X&X&X&X&X&X&X&X&X&X            &X&X&X&X&X&X&X&X&X&X&X&X&X&X&X&X&X&X&X&X&X&X&X&X&X&X&X&X&X&X&X&X&X&X&X&X&X&X&X&X&X",
"&X&X&X&X&X&X&X&X&X&X&X&X&X&X&X&X&X&X&X&X&X&X&X&X&X&X&X&X&X&X&X&X&X&X&X&X&X&X&X&X&X&X&X&X&X&X&X&X&X&X&X&X&X&X&X&X&X&X&X&X&X&X&X&X",
"&X&X&X&X&X&X&X&X&X&X&X&X&X&X&X&X&X&X&X&X&X&X&X&X&X&X&X&X&X&X&X&X&X&X&X&X&X&X&X&X&X&X&X&X&X&X&X&X&X&X&X&X&X&X&X&X&X&X&X&X&X&X&X&X",
"&X&X&X&X&X&X&X&X&X&X&X&X&X&X&X&X&X&X&X&X&X&X&X&X&X&X&X&X&X&X&X&X&X&X&X&X&X&X&X&X&X&X&X&X&X&X&X&X&X&X&X&X&X&X&X&X&X&X&X&X&X&X&X&X",
"&X&X&X&X&X&X&X&X&X&X&X&X&X&X&X&X&X&X&X&X&X&X&X&X&X&X&X&X&X&X&X&X&X&X&X&X&X&X&X&X&X&X&X&X&X&X&X&X&X&X&X&X&X&X&X&X&X&X&X&X&X&X&X&X",
"&X&X&X&X&X&X&X&X&X&X&X&X&X&X&X&X&X&X&X&X&X&X&X&X&X&X&X&X&X&X&X&X&X&X&X&X&X&X&X&X&X&X&X&X&X&X&X&X&X&X&X&X&X&X&X&X&X&X&X&X&X&X&X&X",
"&X&X&X&X&X&X&X&X&X&X&X&X&X&X&X&X&X&X&X&X&X&X&X&X&X&X&X&X&X&X&X&X&X&X&X&X&X&X&X&X&X&X&X&X&X&X&X&X&X&X&X&X&X&X&X&X&X&X&X&X&X&X&X&X",
"&X&X&X&X&X&X&X&X&X&X&X&X&X&X&X&X&X&X&X&X&X&X&X&X&X&X&X&X&X&X&X&X&X&X&X&X&X&X&X&X&X&X&X&X&X&X&X&X&X&X&X&X&X&X&X&X&X&X&X&X&X&X&X&X",
"&X&X&X&X&X&X&X&X&X&X&X&X&X&X&X&X&X&X&X&X&X&X&X&X&X&X&X&X&X&X&X&X&X&X&X&X&X&X&X&X&X&X&X&X&X&X&X&X&X&X&X&X&X&X&X&X&X&X&X&X&X&X&X&X",
"&X&X&X&X&X&X&X&X&X&X&X&X&X&X&X&X&X&X&X&X&X&X&X&X&X&X&X&X&X&X&X&X&X&X&X&X&X&X&X&X&X&X&X&X&X&X&X&X&X&X&X&X&X&X&X&X&X&X&X&X&X&X&X&X",
"&X&X&X&X&X&X&X&X&X&X&X&X&X&X&X&X&X&X&X&X&X&X&X&X&X&X&X&X&X&X&X&X&X&X&X&X&X&X&X&X&X&X&X&X&X&X&X&X&X&X&X&X&X&X&X&X&X&X&X&X&X&X&X&X",
"&X&X&X&X&X&X&X&X&X&X&X&X&X&X&X&X&X&X&X&X&X&X&X&X&X&X&X&X&X&X&X&X&X&X&X&X&X&X&X&X&X&X&X&X&X&X&X&X&X&X&X&X&X&X&X&X&X&X&X&X&X&X&X&X",
"&X&X&X&X&X&X&X&X&X&X&X&X&X&X&X&X&X&X&X&X&X&X&X&X&X&X&X&X&X&X&X&X&X&X&X&X&X&X&X&X&X&X&X&X&X&X&X&X&X&X&X&X&X&X&X&X&X&X&X&X&X&X&X&X",
"&X&X&X&X&X&X&X&X&X&X&X&X&X&X&X&X&X&X&X&X&X&X&X&X&X&X&X&X&X&X&X&X&X&X&X&X&X&X&X&X&X&X&X&X&X&X&X&X&X&X&X&X&X&X&X&X&X&X&X&X&X&X&X&X",
"&X&X&X&X&X&X&X&X&X&X&X&X&X&X&X&X&X&X&X&X&X&X&X&X&X&X&X&X&X&X&X&X&X&X&X&X&X&X&X&X&X&X&X&X&X&X&X&X&X&X&X&X&X&X&X&X&X&X&X&X&X&X&X&X"
};
