/* XPM */
static char *e5fd329370e44b0ff91633ba15d8535bPtr4gTUOOE2RMtai[] = {
/* columns rows colors chars-per-pixel */
"64 64 224 2 ",
"   c None",
".  c #151B2D",
"X  c #191E2F",
"o  c #171E30",
"O  c #1C2434",
"+  c #1E2939",
"@  c #19212E",
"#  c #222A35",
"$  c #292A34",
"%  c #232D3B",
"&  c #242531",
"*  c #26313E",
"=  c #2C343E",
"-  c #393638",
";  c #2E2D35",
":  c #483C3D",
">  c #3D4432",
",  c #484638",
"<  c #54473E",
"1  c #4E5434",
"2  c #565638",
"3  c #645C3D",
"4  c #5F6735",
"5  c #69693A",
"6  c #727838",
"7  c #2A3641",
"8  c #2D3A44",
"9  c #2D3D4A",
"0  c #263442",
"q  c #323C45",
"w  c #393D43",
"e  c #4D3F40",
"r  c #2E414D",
"t  c #33424B",
"y  c #3A4549",
"u  c #3C494E",
"i  c #374348",
"p  c #354952",
"a  c #3B4D53",
"s  c #344A56",
"d  c #3C5156",
"f  c #3C535B",
"g  c #2F4754",
"h  c #3B5862",
"j  c #494744",
"k  c #594843",
"l  c #49544B",
"z  c #5A5448",
"x  c #42565A",
"c  c #445A5D",
"v  c #485C5D",
"b  c #435256",
"n  c #5A5E56",
"m  c #654E47",
"M  c #6D5445",
"N  c #665847",
"B  c #755A48",
"V  c #6B654B",
"C  c #7C624A",
"Z  c #7B6749",
"A  c #656759",
"S  c #756E51",
"D  c #445D62",
"F  c #485F61",
"G  c #435B65",
"H  c #4B6364",
"J  c #46646C",
"K  c #4D6A6B",
"L  c #4A6669",
"P  c #516C6B",
"I  c #566765",
"U  c #54736D",
"Y  c #4B6C72",
"T  c #466C75",
"R  c #4C7176",
"E  c #4E777C",
"W  c #537374",
"Q  c #53747C",
"!  c #54797B",
"~  c #5A7C7C",
"^  c #597777",
"/  c #506F70",
"(  c #6A776A",
")  c #657E79",
"_  c #636C65",
"`  c #516456",
"'  c #85644C",
"]  c #9B744F",
"[  c #856B53",
"{  c #867657",
"}  c #997753",
"|  c #8E7549",
" . c #A27654",
".. c #A57B55",
"X. c #AA7C54",
"o. c #A17E58",
"O. c #B07F56",
"+. c #837864",
"@. c #798138",
"#. c #7A8658",
"$. c #6F8153",
"%. c #66837C",
"&. c #7C936C",
"*. c #5C807E",
"=. c #8C8F3C",
"-. c #B5B93E",
";. c #A6AD3D",
":. c #9AA03C",
">. c #CBD13F",
",. c #E2E93F",
"<. c #8B844C",
"1. c #99824A",
"2. c #9A895C",
"3. c #9B9458",
"4. c #A69849",
"5. c #A98459",
"6. c #B48356",
"7. c #B68C59",
"8. c #A99959",
"9. c #B99158",
"0. c #B3934D",
"q. c #B8AD4C",
"w. c #868765",
"e. c #968865",
"r. c #8A9079",
"t. c #A89A63",
"y. c #B99564",
"u. c #AD966E",
"i. c #96AC72",
"p. c #B0AA6F",
"a. c #C19B56",
"s. c #CEA554",
"d. c #CAAB53",
"f. c #D5B851",
"g. c #CBB651",
"h. c #C19864",
"j. c #CBB26E",
"k. c #C9C745",
"l. c #DCCB4C",
"z. c #CED441",
"x. c #D7D647",
"c. c #CEC955",
"v. c #E2DB49",
"b. c #E4D95B",
"n. c #DCE34C",
"m. c #E9ED45",
"M. c #E6E945",
"N. c #EAF244",
"B. c #EAF14E",
"V. c #ECF259",
"C. c #CCC873",
"Z. c #DBE578",
"A. c #E8E76C",
"S. c #ECEF77",
"D. c #577E82",
"F. c #5B8383",
"G. c #5D8B8C",
"H. c #598488",
"J. c #5F9193",
"K. c #5E8F90",
"L. c #618586",
"P. c #628C8C",
"I. c #688988",
"U. c #68928C",
"Y. c #79968B",
"T. c #678E92",
"R. c #629595",
"E. c #699495",
"W. c #669C9D",
"Q. c #6B9C9C",
"!. c #679897",
"~. c #729691",
"^. c #729C9D",
"/. c #739B94",
"(. c #7D8D83",
"). c #6BA19F",
"_. c #75A49B",
"`. c #6C9DA0",
"'. c #6CA2A3",
"]. c #67A0A0",
"[. c #73A4A4",
"{. c #74ABAB",
"}. c #7BACAC",
"|. c #79A9A7",
" X c #7DAEB0",
".X c #7DB2B3",
"XX c #8BA89A",
"oX c #93A795",
"OX c #94B498",
"+X c #B4BB90",
"@X c #83AEA4",
"#X c #8DAFA9",
"$X c #89B5AA",
"%X c #9BBDA9",
"&X c #93B9AB",
"*X c #82B4B5",
"=X c #85BBBC",
"-X c #89BCBD",
";X c #86B9B7",
":X c #9EAA97",
">X c #C2B88B",
",X c #9BC5B7",
"<X c #92C1B8",
"1X c #A6CAB7",
"2X c #AED1BE",
"3X c #B1D3BE",
"4X c #AECEA7",
"5X c #DAD086",
"6X c #E8E387",
"7X c #F2F687",
"8X c #F5F89C",
"9X c #F5F8A4",
"0X c #F7F9B7",
"qX c #EBE5A4",
"wX c #E3DB88",
"eX c #89BFC0",
"rX c #87BEC0",
"tX c #8CC3C4",
"yX c #8FC7C8",
"uX c #92C5C3",
"iX c #96C8C5",
"pX c #A2CDC1",
"aX c #FAFACC",
"sX c #FFFFFB",
/* pixels */
"                                                                                                                                ",
"                                                                                                                                ",
"                                                            . # % O                                                             ",
"                                                    . % + + t R K c 7 O O $                                                     ",
"                                                p f s G.R.F.F.W.!.!.G.K K { w.9                                                 ",
"                                            O r [.Q !.=X.X).G.!.W.W.W.G.R.w.+XT.r O                                             ",
"                                          . f '.tX`.'.'.W.W.W.!.W.'.[.W.'.W P.tX`.f .                                           ",
"                                        . % W {.rXQ.(.|..X{.P.Q..XrX.X{. XQ.'.rX{.W % .                                         ",
"                                      % % 7 ! [.<XXXj.OXtX.XP.E.-XyXtXyXP.F [.<X[.! 7 % %                                       ",
"                                    9 G.G t W Q.1X4X6X&.!.W.!.G.Q.=X;X}.G L.-X,XQ.W t G G.9                                     ",
"                                  r s !.x t F F.'._.#.I Q.W.W.W.W.W.G.^.W F.Q.).F.c t x !.s r                                   ",
"                                f J.Y r.[ c J H.W.G.H ~ }.'.'.{.{.Q.`.eX~.+.e.!.H.p a K R.Y J.f                                 ",
"                                s R./ +XC.) {..XW.K H P [..X.XQ.L W |..X) 4.A.OX.X*XL.F.R.W R.s                                 ",
"                              * d G.c i.8.H }.yX}.G 9 H '.eXeX$X( K {.W.v q.aX+XtX-X~ F.F.c G.d *                               ",
"                            O x v c u l - F /.,XtX{.8 L !.'.{.&XXX*.W.W./ 1.b.i.rX[.L i a u c v x O                             ",
"                            * L x i N z 8 ^ !.$X|.Q 8 P !.W.W.W.R.Y R.`.H.- S /.{.W.! 9 i i q x L *                             ",
"                          O q c f ) >X<.p ~ W.W.!.Q Q ^ G.!.W.W.R.G R.W.Y G J H.W.W.~ x 7 G D.f c q O                           ",
"                        % x a * `.$XwX2.z ( G.D.Q.yXyX[.^ F.!.W.F.d F.{..XeXuX!.D.G.H H R .XyXT.% a x *                         ",
"                        a P t p *X|.&.z 8.y.z t F.=XyXtX=XP.H F.W 9 ^ ;XiX1X1XU.t % r ! .XtXyX}.t 7 L a                         ",
"                      u v H 9 H ^.yX-Xi.0XA.Z v ~ '.<X1X3X%Xa c f 0 d ~ XX@XW.G.H x ~ .XtXtXtX[.L 7 F v u                       ",
"                      i H t a W R.{.%Xc.7X5Xz F ^ R.).@X,XY.d D.F.}..XE.W W.W.G.P { 2.oX=X.X'.R./ a q v i                       ",
"                    . # 8 O a P G.W.!.i.q.0.j H ! R.W.W.W.R f .XtXuX,X/.K W.~.%.b -.A.+XQ.'.W.R.P p , 3.= .                     ",
"                    O t 8 # t H F.!.W.R.l n 8 H P.W.W.W.W.W t F.'.*X|.D.K J.w.u.z x.8XZ.U.W.!.F.H r j p.b O                     ",
"                    7 P u a ! [.D.f G.!.G H 7 f G.W.W.W.!.W x H.W.W.`.R G Y <.C.< a.b.k.U G.f D.[.! a y K 7                     ",
"                  % u P b a I.yXtXP.E.[.P t O G ! R.W.W.F.2.e.P.!.'.W.J L. X( i.G z 4.#.Q.E.P.tXyXI.a d P u #                   ",
"                  a n 8.{ H ^.yXtXyXyXtX}.c p }.*XP.!.W.W 8.+XP Y .X-X;XuXtX{.=X}.p H }.yXyXyXtXtX^.c a P c t                   ",
"                  F +.6X0.~ .XyXtXtXtXtX*XH t L.eX-X*X{.E.(.&.c t F.}.&X@X'.W.[.L.t H *XtXtXtXuXiX.X! t H a c                   ",
"                  F S l.| R '.{.=XpX3X,X%.H t P Q.<X2X3X2X;X'.W t ! W.W.W.W.W.P.P 9 H %.,X2X3X1X&X'.G.7 * i H                   ",
"                O a i 2 j D.W.W.[.&X%X/.P F t P F.[.%X%X%X[.W.! a W P.W.W.W.!.F.K t F P /.%X%X@X!.W.K.* O y a O                 ",
"                # y q f Y ! W.W.W.W.W.G.P F * c F.R.W.W.W.W.G.n j F F.'.W.W.W.G.L 9 c P G.W.W.) t.~.! Y c q i #                 ",
"                % i % K R.H.'.W.W.W.W.R.P t - z P U.~././.%.n } 5.z I P ~ F.L x z j t P R.W.G.V qXoXH.R.K = y %                 ",
"                % q 8 K ~ *XtX.X{.W.W.R.d o B 9.7.{ [ y.h.[ } j.j.} { 7.5.S Z 9.a.Z o f E.r.e.z q.&..X~ _ 8.S %                 ",
"              . = = a P K I.-XyXtX.X!.F.L p : 5.5.N M 7.h.M B y.5.z N y.o.m N y.5.j p H _ d.Z.w.I.}.I.K l j.w.* .               ",
"              . # f L.P ( 2.e./..X'.W L P H j  .X.M B ..6.B M X. .M B 6.X.M M X.] j H K j j.0XZ.Y.^ P P F r.l # .               ",
"              . a P.tX[.+XA.-.c I.~.J x K t < 6.X.B C 9.7.C C 6.7.C C 7.6.B B 6.X.< t L y 9.b.z.` K L ~ [.=XG.a .               ",
"              O K {.yX$XZ.8Xx.< e.w.f a x O - ] 1.2 k q.q.5 k ] k.5 5 k.| < 3 5.] - O d p V 3.$.7 c T..XyXtX{.K O               ",
"              % ! '.=X%.>.b.a.z C.<.J  X^.F O & $ @ X - > 1 1 - , 1 1 , $ X @ $ & O F ^.*X.X-X[.t P.yXpXiX=X'.! %               ",
"              8 G.W.'.F.&.q.N 8 #.A -X1XI.L q : ; e $ 6 z.n.,.>.z.n.n.z.6 $ : ; - q L I.3X2XtX|.a Q }.%X#X[.W.G.8               ",
"              9 R.W.W.W.W.I.c d D.R.&X|.P.P q B m [ k ;.N.V.8X9XS.7XS.N.;.k k m B i P P.[.&X[.G.d K !.W.W.W.W.R.9               ",
"            . 0 R.'.W.W.W.!.A u R.W.W.W.!.^ 8 m '  .C =.N.S.sXsX0XV.N.N.=.V C ] B q ^ !.W.W.W.E.t 9 H.W.W.W.'.R.0 .             ",
"            . 8 F..X'.W.!.(.p.j E W.W.W.W.~ a M ..9.1.5 m.7XsXsXaX9XB.N.5 4.5...M a ~ W.W.W.~.t.e.x Y Q.W.'..XF.8 .             ",
"            O F R.=X=X.X=X4X6X2 T W.W.W.!.^ t M  ...4.6 m.7X9X9X0X8XB.m.6 q.9. .M j e.~.W.W.) c.5XXX*X=X.X=X=XR.F O             ",
"            O K !.[.tXiXyX,Xi.q Y W.'.!.W d o < X...q.@.m.N.N.S.aX7XB.z.1 g.9.6.: 2 wXr.!.'.v q.c._.yXyXiXtX[.!.K O             ",
"          . 7 ~ W.W.@XXX&X;XP.W *X=XrX;XT.Y g :  .} g.4 n.N.N.B.V.V.N.z., c.5.7.: , j.OX*XtXQ V ( P.;X&XXX@XW.W.~ 7 .           ",
"          . 8 W !.W.W.G.U.'.G.[.yXtXtXyXyX=XG.w ] 7.c.4 z.m.M.M.N.N.N.z.2 g.} X.w T ~.tXyXtX-X.X[.G.).U.G.W.W.!.W 8 .           ",
"            9 # h E W.W.W.!.P.,XuXtXyXyXtX=XJ $ ] h.f.@.z.v.l.v.M.l.v.z.5 d...] $ J =XyXyXtXtXuX,XP.!.W.W.W.E h # 9             ",
"                o + H.W.W.! F oX2X1X@X^./.P.K t C h.d.@.k.v.x.f.s.f.M.-.6 d.O.' t K P.Q.^.@X1X2XoXF ! W.W.H.+ o                 ",
"                    h R.J.h t ~ _._.Q.R.R.!.! d C 7.0.5 k.l.l.f.s.l.m.:.2 9.6.B d W R.R.R.!._._.~ t h J.R.h                     ",
"                        0 O % W W.W.W.W.J.J G x C 6. .3 k.v.l.s.d.f.f.:., ..X.k p t T R.W.W.W.W.W # O 0                         ",
"                              r G.R.W.!.T . O 7 j .. .Z z.m.f.s.s.s.l.=.m ....< + . O f R.W.J.H.9 .                             ",
"                                % f R           - ' ' ' -.M.f.  s.s.s.2 < B ] <           ! s %                                 ",
"                                              . X - m B $               X & k $                                                 ",
"                                                                                                                                ",
"                                                                                                                                ",
"                                                                                                                                ",
"                                                                                                                                ",
"                                                                                                                                ",
"                                                                                                                                ",
"                                                                                                                                ",
"                                                                                                                                ",
"                                                                                                                                ",
"                                                                                                                                ",
"                                                                                                                                ",
"                                                                                                                                "
};
