/* XPM */
static char *_b75967ffc854b2cccec08f0e705b854mGTMXqSt109p2QuF[] = {
/* columns rows colors chars-per-pixel */
"64 64 72 1 ",
"  c #A08977",
". c #A58D7A",
"X c #AF957F",
"o c #B59B83",
"O c #9E8776",
"+ c #A18978",
"@ c #B89D84",
"# c #BEA288",
"$ c #BDA188",
"% c #AB927D",
"& c #AE947F",
"* c #BDA187",
"= c #B69B84",
"- c #BCA187",
"; c #B39982",
": c #A9907C",
"> c #B69B83",
", c #BCA087",
"< c #B59A83",
"1 c #B49982",
"2 c #BFA388",
"3 c #BB9F86",
"4 c #A28A78",
"5 c #BFA288",
"6 c #B49A82",
"7 c #B39882",
"8 c #AF9580",
"9 c #AE957F",
"0 c #A68E7B",
"q c #AD947F",
"w c #BA9F86",
"e c #B49A83",
"r c #AC937E",
"t c #B89D85",
"y c #BBA086",
"u c #B19781",
"i c #A48C7A",
"p c #AA917C",
"a c #A48C79",
"s c #BA9E86",
"d c #9D8675",
"f c #A9917C",
"g c #9D8776",
"h c #9F8876",
"j c #A78F7B",
"k c #AA917D",
"l c #B29881",
"z c #B99D85",
"x c #BBA087",
"c c #AD947E",
"v c #B79C84",
"b c #AF9680",
"n c #9F8877",
"m c #A68E7A",
"M c #B99E85",
"N c #9D8676",
"B c #A28B78",
"V c #A38B79",
"C c #A18A78",
"Z c #BA9E85",
"A c #A8907C",
"S c #AB927E",
"D c #B09680",
"F c #A08877",
"G c #BDA288",
"H c #B69C84",
"J c #B19780",
"K c #A68D7A",
"L c #AA927D",
"P c #A78E7B",
"I c #9F8776",
"U c white",
/* pixels */
" ...Xo.O+@###########$%&*=-##################################*;:",
">,--#*<1o$############*$####################################23.4",
"######55###################################################$6789",
"###########################################################$:OX2",
"###########################################################$&0q#",
"########,,###################################################*w#",
"#######3:e######################################################",
"w######r&*######################################################",
"t######w*#######################################################",
"################################################################",
"################################################################",
"################################################################",
"################################################################",
"################################################################",
"################################################################",
"################################################################",
"################################################################",
"################################################################",
"################################################################",
"################################################################",
"################################################################",
"################################################################",
"################,*############################*3y###############",
"##############$ui9#######################ww##,p4as##############",
"##############s+d0*######################%f##8ghj3##############",
"##############*ka<#######################lu#zi%6l,##############",
"###############xx###########################*w#c.w##############",
"###############################################vw###############",
"################################################################",
"################################################################",
"################################################################",
"################################################################",
"################################################################",
"################################################################",
"################################################################",
"################################################################",
"################################################################",
"################################################################",
"################################################################",
"############2###########**######################################",
"###########wbe,3########rb######################################",
"##########5bnu:mM#######>s######################################",
"##########5X.enN%#####################*,*#######################",
"###########slrOO.,####################&Bl<1#####################",
"#############0NO M####################8koV:#####################",
"s############7nOCZ#####################t.d:-###################5",
"6############$:dA$###################w8iOOcSx################$l&",
"*#############tkX###################5DF FcMq,###############,%4k",
"#####################################wv@vG#G################*Ht#",
"################################################################",
"################################################################",
"##############################################vM###############*",
"#############################################J4;5##############6",
"#############################################rq*###############7",
"#############################################################ek9",
"#############################################################&NF",
"#############################################################MKn",
"##############################################################,v",
"ws############################################################zu",
"VBkt2###2#####################################################wL",
"OONi1##1uM,#####################################################",
"OOOOnrt7Par#####################################################",
"IOOOOOCr;ccM####################################################",
"jIOOOOOOOhnl##############,H###################################s"
};
