/* XPM */
static char *result[] = {
/* columns rows colors chars-per-pixel */
"64 64 219 2 ",
"   c #0F162A",
".  c #11172B",
"X  c #151B2D",
"o  c #191E2F",
"O  c #1C1E31",
"+  c #201F33",
"@  c #1E2232",
"#  c #232233",
"$  c #2B2434",
"%  c #252836",
"&  c #292A36",
"*  c #2B253A",
"=  c #272C3B",
"-  c #2C2D39",
";  c #272338",
":  c #33273C",
">  c #352A3E",
",  c #3C2A3C",
"<  c #362836",
"1  c #2D3039",
"2  c #33343C",
"3  c #39363D",
"4  c #3A393E",
"5  c #35383F",
"6  c #422C39",
"7  c #4B2F3B",
"8  c #4B323E",
"9  c #55343E",
"0  c #61353F",
"q  c #3D2B42",
"w  c #362940",
"e  c #3C3C41",
"r  c #363B4A",
"t  c #432E46",
"y  c #462F49",
"u  c #433E42",
"i  c #4A314B",
"p  c #4C3545",
"a  c #52334D",
"s  c #563642",
"d  c #553551",
"f  c #593752",
"g  c #5E3954",
"h  c #6A3B4B",
"j  c #653A45",
"k  c #733E46",
"l  c #783E46",
"z  c #6B3E5B",
"x  c #643B56",
"c  c #703F5B",
"v  c #3C414D",
"b  c #454144",
"n  c #494446",
"m  c #4B4D4D",
"M  c #4C4649",
"N  c #554145",
"B  c #544C4A",
"V  c #5D4347",
"C  c #5D544E",
"Z  c #4E4B56",
"A  c #5E5251",
"S  c #585853",
"D  c #544A5B",
"F  c #644A4B",
"G  c #6A484A",
"H  c #77484B",
"J  c #74405A",
"K  c #7B435A",
"L  c #7D4357",
"P  c #665C52",
"I  c #695D53",
"U  c #655551",
"Y  c #715F59",
"T  c #60584F",
"R  c #69655A",
"E  c #716557",
"W  c #74635A",
"Q  c #7A655D",
"!  c #7C6D5C",
"~  c #766958",
"^  c #7F705D",
"/  c #555862",
"(  c #72546C",
")  c #5D6068",
"_  c #676868",
"`  c #7D7565",
"'  c #77726F",
"]  c #85434A",
"[  c #8A4B4D",
"{  c #844659",
"}  c #874655",
"|  c #934953",
" . c #9D4D56",
".. c #924A58",
"X. c #865C56",
"o. c #975858",
"O. c #8D4D4F",
"+. c #A44E52",
"@. c #A65056",
"#. c #AA5155",
"$. c #A85B59",
"%. c #B65555",
"&. c #B95656",
"*. c #B95C59",
"=. c #B55957",
"-. c #9B635B",
";. c #A9655D",
":. c #BB645D",
">. c #B6665E",
",. c #846E62",
"<. c #8D7466",
"1. c #8C7B62",
"2. c #837B67",
"3. c #967B6A",
"4. c #907967",
"5. c #9F6D60",
"6. c #BD6B61",
"7. c #B56D61",
"8. c #A87263",
"9. c #BE7264",
"0. c #B87968",
"q. c #C17566",
"w. c #C37C6A",
"e. c #938166",
"r. c #9B826B",
"t. c #9E896B",
"y. c #998066",
"u. c #868374",
"i. c #958872",
"p. c #908B73",
"a. c #A1846F",
"s. c #A48E6E",
"d. c #AA846D",
"f. c #A88B72",
"g. c #AE9572",
"h. c #A49979",
"j. c #B59A75",
"k. c #B99A76",
"l. c #A8916F",
"z. c #BDA27A",
"x. c #C5836E",
"c. c #C8866F",
"v. c #C98B73",
"b. c #C88670",
"n. c #CB9374",
"m. c #CE9D7A",
"M. c #C2A47B",
"N. c #C6A97D",
"B. c #CAAC7E",
"V. c #CFA37B",
"C. c #D2AB7E",
"Z. c #828385",
"A. c #9D9882",
"S. c #A99983",
"D. c #B3AA88",
"F. c #BFBB94",
"G. c #B2AD97",
"H. c #B2B3B2",
"J. c #A1A4AB",
"K. c #CDAE80",
"L. c #C2AA87",
"P. c #D3A982",
"I. c #CDB384",
"U. c #C7B589",
"Y. c #D5B583",
"T. c #D7B886",
"R. c #D9B986",
"E. c #DABD8B",
"W. c #D7B988",
"Q. c #C4BB92",
"!. c #CCB894",
"~. c #C3BCA3",
"^. c #DCC28D",
"/. c #DDC492",
"(. c #DEC995",
"). c #DCC39B",
"_. c #D7C998",
"`. c #E0CB95",
"'. c #E2CF99",
"]. c #E5D29D",
"[. c #E9D49F",
"{. c #CDC3A7",
"}. c #D2CEAA",
"|. c #E5D4A4",
" X c #EBDBA5",
".X c #EDDEA9",
"XX c #E8D8A4",
"oX c #ECDCB6",
"OX c #E3CFAA",
"+X c #EEE2AB",
"@X c #ECE1A7",
"#X c #F1E3AD",
"$X c #F1E4B5",
"%X c #F2E6B9",
"&X c #F5E9BB",
"*X c #F2EBB7",
"=X c #B9BBC1",
"-X c #DCD4C8",
";X c #E8D9C3",
":X c #E9DFD0",
">X c #EDE4CB",
",X c #F5EECC",
"<X c #F8EDC3",
"1X c #EEE9DA",
"2X c #F6EFD1",
"3X c #F0ECDC",
"4X c #F7F2D6",
"5X c #F9F1D4",
"6X c #F8F2DD",
"7X c #F9F0CB",
"8X c #EDEBEA",
"9X c #F1EFEE",
"0X c #FAF6E4",
"qX c #F9F5EC",
"wX c #F7F3E8",
"eX c #F4F3F2",
"rX c #FFFFFE",
"tX c #FCF9F1",
"yX c None",
/* pixels */
"yXyXyXyXyXyXyXyXyXyXyXyXyXyXyXyXyXyXyXyXyXyXyXyXyXyXyXyXyXyXyXyXyXyXyXyXyXyXyXyXyXyXyXyXyXyXyXyXyXyXyXyXyXyXyXyXyXyXyXyXyXyXyXyX",
"yXyXyXyXyXyXyXyXyXyXyXyXyXyXyXyXyXyXyXyXyXyXyXyXyXyXyXyXyXyXyXyXyXyXyXyXyXyXyXyXyXyXyXyXyXyXyXyXyXyXyXyXyXyXyXyXyXyXyXyXyXyXyXyX",
"yXyXyXyXyXyXyXyXyXyXyXyXyXyXyXyXyXyXyXyXyXyXyXyXyXyXyXyXyXyXyXyXyXyXyXyXyXyXyXyXyXyXyXyXyXyXyXyXyXyXyXyXyXyXyXyXyXyXyXyXyXyXyXyX",
"yXyXyXyXyXyXyXyXyXyXyXyXyXyXyXyXyXyXyXyXyXyXyXyXyXyXyXyXyXyXyXyXyXyXyXyXyXyXyXyXyXyXyXyXyXyXyXyXyXyXyXyXyXyXyXyXyXyXyXyXyXyXyXyX",
"yXyXyXyXyXyXyXyXyXyXyXyXyXyXyXyXyXyXyXyXyXyXyXyXyXyXyXyXyXyXyXyXyXyXyXyXyXyXyXyXyXyXyXyXyXyXyXyXyXyXyXyXyXyXyXyXyXyXyXyXyXyXyXyX",
"yXyXyXyXyXyXyXyXyXyXyXyXyXyXyXyXyXyXyXyXyXo 9 H < X X yXyXyXyXyXyXyXyXyXyXyXyXyXyXyXyXyXyXyXyXyXyXyXyXyXyXyXyXyXyXyXyXyXyXyXyXyX",
"yXyXyXyXyXyXyXyXyXyXyXyXyXyXyXyXyXyXyXX X o H =.H V N @ o yXyXyXyXyXyXyXyXyXyXyXyXyXyXyXyXyXyXyXyXyXyXyXyXyXyXyXyXyXyXyXyXyXyXyX",
"yXyXyXyXyXyXyXyXyXyXyXyXyXyXyXyXyXyXX + 7 | =.q.b.x.0.;.X., $ yXyXyXyXyXyXyXyXyXyXyXyXyXyXyXyXyXyXyXyXyXyXyXyXyXyXyXyXyXyXyXyXyX",
"yXyXyXyXyXyXyXyXyXyXyXyXyXyXyXyXyXX ; h &.:.9.q.w.q.*.q.x.q.-.2 yXyXyXyXyXyXyXyXyXyXyXyXyXyXyXyXyXyXyXyXyXyXyXyXyXyXyXyXyXyXyXyX",
"yXyXyXyXyXyXyXyXyXyXyXyXyXyXyXyXX O 9 +.&.&.w.x.c.w.w.q.x.x.x.o.9 yXyXyXyXyXyXyXyXyXyXyXyXyXyXyXyXyXyXyXyXyXyXyXyXyXyXyXyXyXyXyX",
"yXyXyXyXyXyXyXyXyXyXyXyXyXyXyXyXO ,  .%.&.&.q.x.c.w.c.q.:.x.x.q.H o yXyXyXyXyXyXyXyXyXyXyXyXyXyXyXyXyXyXyXyXyXyXyXyXyXyXyXyXyXyX",
"yXyXyXyXyXyXyXyXyXyXyXyXyXyXyXyX# f ..%.#.l 9 V F 5.d.x.9.o.0.c.8.< yXyXyXyXyXyXyXyXyXyXyXyXyXyXyXyXyXyXyXyXyXyXyXyXyXyXyXyXyXyX",
"yXyXyXyXyXyXyXyXyXyXyXyXyXyXyXyX* L +.+.6 O X X . + F x.c.;.9 0.x.[ # yXyXyXyXyXyXyXyXyXyXyXyXyXyXyXyXyXyXyXyXyXyXyXyXyXyXyXyXyX",
"yXyXyXyXyXyXyXyXyXyXyXyXyXyXyXyX* ..&.@.x d d d + O O F 0.x.G N 0.;.$ yXyXyXyXyXyXyXyXyXyXyXyXyXyXyXyXyXyXyXyXyXyXyXyXyXyXyXyXyX",
"yXyXyXyXyXyXyXyXyXyXyXyXyXyXyXyXO f ..#...z z z f O X X j w.6.$ X.$.$ yXyXyXyXyXyXyXyXyXyXyXyXyXyXyXyXyXyXyXyXyXyXyXyXyXyXyXyXyX",
"yXyXyXyXyXyXyXyXyXyXyXyXyXyXyXyXX w c ..K z z z d O X X >  .>.7 o.K w yXyXyXyXyXyXyXyXyXyXyXyXyXyXyXyXyXyXyXyXyXyXyXyXyXyXyXyXyX",
"yXyXyXyXyXyXyXyXyXyXyXyXyXyXyXyXyXo ; y a i d w O X yXo o H } a | x * yXyXyXyXyXyXyXyXyXyXyXyXyXyXyXyXyXyXyXyXyXyXyXyXyXyXyXyXyX",
"yXyXyXyXyXyXyXyXyXyXyXyXyXyXyXyXyXyXX o o o o X o yXyXo X ] k 6 O.$ X yXyXyXyXyXyXyXyXyXyXyXyXyXyXyXyXyXyXyXyXyXyXyXyXyXyXyXyXyX",
"yXyXyXyXyXyXyXyXyXyXyXyXyXyXyXyXyXyXyXyXX o X yXyXyXo X X k y h l X . yXyXyXyXyXyXyXyXyXyXyXyXyXyXyXyXyXyXyXyXyXyXyXyXyXyXyXyXyX",
"yXyXyXyXyXyXyXyXyXyXyXyXyXyXyXyXyXyXyXyXyXyXyXX & q V + > a . + < n 4 X o yXyXyXyXyXyXyXyXyXyXyXyXyXyXyXyXyXyXyXY.yXyXyXyXyXyXyX",
"yXyXyXyXyXyXyXyXyXyXyXyXyXyXyXyXyXyXyXyXyXyXX # i.!.S.D ( D r r / :X-XZ.@ X yXyXyXyXyXyXyXyXyXyXyXyXyXyXyXyXyXY.Y.yXyXyXyXyXyXyX",
"yXyXyXyXyXyXyXyXyXyXyXyXyXyXyXyXyXyXyXyXyXo o @ S J.;X8X9X9X8X8X8X>X~.m @ o yXyXyXyXyXyXyXyXyXyXyXyXyXyXyXyXY.).L.yXyXyXyXyXyXyX",
"yXyXyXyXyXyXyXyXyXyXyXyXyXyXyXyXyXyXyXyXyXX 2 W u A !.&X%X%XOX|.|.XXOXU.g.n X yXyXyXyXyXyXyXyXyXyXyXyXyXyXY.).wX_ yXyXyXyXyXyXyX",
"yXyXyXyXyXyXyXyXyXyXyXyXyXyXyXyXyXyXyXyXX X u 3.j.`. X+XoX%X%X6X0X0X6X|.^.t.@ yXyXyXyXyXyXyXyXyXyXyXyXyX~ `.qXqXZ yXyXyXyXyXyXyX",
"yXyXyXyXyXyXyXyXyXyXyXyXyXyXyXyXyXyXyXyXX O Q 3.L.Y.[.#X$X2X2X5XtXrXeXwX+X/.B yXyXyXyXyXyXyXyXyXyXyXyXe _ qXrX,Xm yXyXyXyXyXyXyX",
"yXyXyXyXyXyXyXyXyXyXyXyXyXyXyXyXyXyXyXyXX M 3.a.Y.Y.].#X+X+X+X+X$X>X_ h..X#Xl.@ yXyXyXyXyXyXyXyXyXyXyXe.{.rXwX+Xm yXyXyXyXyXyXyX",
"yXyXyXyXyXyXyXyXyXyXyXyXyXyXyXyXyXyXyXyXX u 3.r.Y.Y.E.`..X+X+X@X$X>Xr B E.$XQ.@ yXyXyXyXyXyXyXyXyXyXj.OX4XeX(.XXm yXyXyXyXyXyXyX",
"yXyXyXyXyXyXyXyXyXyXyXyXyXyXyXyXyXyXyXX O B <.m.Y.Y.Y.E.|.@X+X%XtXeXr # l.oX{.= @ yXyXyXyXyXyXyXyXyXm 1X4X;X^._.m yXyXyXyXyXyXyX",
"yXyXyXyXyXyXyXyXyXyXyXyXyXyXyXyXyXyXyXX & <.3.L.Y.Y.Y.Y.Y.^.[.&XqX3Xv   ~ ^.oXi.& yXyXyXyXyXyXyXyX  _ qX.XT.(.` @ yXyXyXyXyXyXyX",
"yXyXyXyXyXyXyXyXyXyXyXyXX X yXyXyXyXyXX & <.a.K.Y.Y.Y.Y.Y.E.@X@X,X3Xv   e N.%Xu.X yXyXyXyXyXyXyXyX& F.*X^.Y.z.= yXyXyXyXyXyXyXyX",
"yXyXyXyXyXyXyXyXyXyXyXX e 1   yXyXyXyXX & ,.r.K.Y.Y.B.N.B.I.XX].>X=Xw   o P 2.m X yXyXyXyXyXyXyX. R #XXXY.Y.R @ yXyXyXyXyXyXyXyX",
"yXyXyXyXyXyXyXyXyXyXyXX B r.M @ yXyXyXo O & U r.k.P.3.B 2 2 4 v v = X o X X   X @ yXyXyXyXyXyXyX@ F.@XT.Y.j.% yXyXyXyXyXyXyXyXyX",
"yXyXyXyXyXyXyXyXyXyXyXX X T N.E o yXyXX X u <.a.I.Y.Y.!.u.e % .   .   X X @ m A.1 X yXyXyXyXyX. R |.p.B.Y.R X yXyXyXyXyXyXyXyXyX",
"yXyXyXyXyXyXyXyXyXyXyX# 6 o C C.E X X X X 3 <.g.C.Y.Y.^.].XXD.2.u.Z.r X X B E.$XR X yXyXyXyXyX= F.A.b C.g.- yXyXyXyXyXyXyXyXyXyX",
"yXyXyXyXyXyXyXyXyXyXyX$ +.] 6 T M.! 3 X . X P a.a.s.B.Y.Y.^.+X#X7XrXJ.X @ s.oX&XS.X yXyXyXyXX R @X^ e.^.E   yXyXyXyXyXyXyXyXyXyX",
"yXyXyXyXyXyXyXyXyXyXyX$ +.&.%.] U 3.3.P 2 X @ P 3.f.T.Y.Y.Y.].#X#X,XH.X C _.6X%Xh.X yXyXyXyX% F._.n l.j.- yXyXyXyXyXyXyXyXyXyXyX",
"yXyXyXyXyXyXyXyXyXyXyX$ #.%.%.%.;.d.k.B.z.^ C & U C g.Y.Y.Y.E..X+X<XH.. ! [.#X|.R . # @ yX. C _.` S Y.I . yXyXyXyXyXyXyXyXyXyXyX",
"yXyXyXyXyXyXyXyXyXyXyX$ #.%.%.%.:.N.! 4 u h.h._.Q.r u B.T.Y.R. X+X%X~.' !.#X#XQ.% - 8.X.# @ g.e.& j.j.& yXyXyXyXyXyXyXyXyXyXyXyX",
"yXyXyXyXyXyXyXyXyXyXyX$ #.%.6.>.w.C.C.l.1.4 1 R I.5 @ ! j.I.W. X+X$X5XtX,XXX[.R @ j H >.6 C N.4 n B.R X yXyXyXyXyXyXyXyXyXyXyXyX",
"yXyXyXyXyXyXyXyXyXyXyX$ #.&.*.>.v.'.`.E.R.B.R 1 U.4 X X @ B t.|.#X#X2X,X#X(.! o N ;.8 1 6 g.1.# ! r.- yXyXyXyXyXyXyXyXyXyXyXyXyX",
"yXyXyXyXyXyXyXyXyXyXyX$ #.%.%.:.n. X X^.Y.T.t.5 U.3 X X X X @ S D.'.$X%X.Xu., q s x.;.6 - 1.2 b 3.M X yXyXyXyXyXyXyXyXyXyXyXyXyX",
"yXyXyXyXyXyXyXyXyXyXyX$ $.%.%.=.w.E.(.(.Y.T.s.4 M.5 o i * # X X @ n ` D.S + d d < [ *.+.7 # X U Q $ o X yXyXyXyXyXyXyXyXyXyXyXyX",
"yXyXyXyXyXyXyXyXyXyXyX1 v.x.>.%.:.P.(. X^.Y.z.C M.3 + } c g t w o . o @ X i } c i + j +.#.h > @ o : a j # yXyXyXyXyXyXyXyXyXyXyX",
"yXyXyXyXyXyXyXyXyXyXyX- N.C.V.c.6.m.E.E.E.Y.M.W M.3 + | %...K x d : O o i { #.c $ O e $ 0 } z f : O t j # yXyXyXyXyXyXyXyXyXyXyX",
"yXyXyXyXyXyXyXyXyXyXyX2 N.Y.^.@X`.V.C.Y.C.C.N.s.B.3 O } %.&.#...J z f d c  .} y X U 3.,.u + q f a ; # X o yXyXyXyXyXyXyXyXyXyXyX",
"yXyXyXyXyXyXyXyXyXyXyX@ e.Y./.]..Xn.>.n.C.^.g.1.B.5 ; } %.%.&.%.%.K c c @.@.p X X Y g.K.M.M o + q f q o yXyXyXyXyXyXyXyXyXyXyXyX",
"yXyXyXyXyXyXyXyXyXyXyX. I R.Y.'.@XP.q.:.q.n.y.C K.3 + { +.=.%.%.=.=.#.%. .i o X X Y k.Y.T.B.W X X # o X yXyXyXyXyXyXyXyXyXyXyXyX",
"yXyXyXyXyXyXyXyXyXyXyX. 2 z.T.Y.E.x.w.6.:.*.O.& f.e O x c { @.@.@.@.@.| s O X X X e 3.K.Y.R.,.. X yXyXyXyXyXyXyXyXyXyXyXyXyXyXyX",
"yXyXyXyXyXyXyXyXyXyXyXyXo E Y.Y.Y.n.:.:.%.&.] % y.2 O w q q q q q q q # X o o yXX O 2 B P P % X yXyXyXyXyXyXyXyXyXyXyXyXyXyXyXyX",
"yXyXyXyXyXyXyXyXyXyXyXyXyXo E Y.Y.C.*.%.%.&.] 8 Q % X X X X X X X X X X X yXyXX * f + X X X X yXyXyXyXyXyXyXyXyXyXyXyXyXyXyXyXyX",
"yXyXyXyXyXyXyXyXyXyXyXyXyXyXo E C.Y.q.%.&.+.V E - X o X X yXyXyXo X X o yXyXyXo O a w X yXyXyXyXyXyXyXyXyXyXyXyXyXyXyXyXyXyXyXyX",
"yXyXyXyXyXyXyXyXyXyXyXyXyXyXyXo E Y.v.%.+.6 b - X X o X o yXyXyXo X o yXyXyXyXyXX o o yXyXyXyXyXyXyXyXyXyXyXyXyXyXyXyXyXyXyXyXyX",
"yXyXyXyXyXyXyXyXyXyXyXyXyXyXyXyXO ~ x.+.8 - @ X yXyXo X X o yXo X X X yXyXyXyXyXyXyXyXyXyXyXyXyXyXyXyXyXyXyXyXyXyXyXyXyXyXyXyXyX",
"yXyXyXyXyXyXyXyXyXyXyXyXyXyXyXyXyX@ F 6 B M X yXyXo X X X X yXX X o X o yXyXyXyXyXyXyXyXyXyXyXyXyXyXyXyXyXyXyXyXyXyXyXyXyXyXyXyX",
"yXyXyXyXyXyXyXyXyXyXyXyXyXyXyXyXyXyXX X 2 # yXyXyXo X o o yXyXo X o X o yXyXyXyXyXyXyXyXyXyXyXyXyXyXyXyXyXyXyXyXyXyXyXyXyXyXyXyX",
"yXyXyXyXyXyXyXyXyXyXyXyXyXyXyXyXyXyXyXX X yXyXyXyXyXyXyXyXyXyXyXyXyXyXyXyXyXyXyXyXyXyXyXyXyXyXyXyXyXyXyXyXyXyXyXyXyXyXyXyXyXyXyX",
"yXyXyXyXyXyXyXyXyXyXyXyXyXyXyXyXyXyXyXyXyXyXyXyXyXyXyXyXyXyXyXyXyXyXyXyXyXyXyXyXyXyXyXyXyXyXyXyXyXyXyXyXyXyXyXyXyXyXyXyXyXyXyXyX",
"yXyXyXyXyXyXyXyXyXyXyXyXyXyXyXyXyXyXyXyXyXyXyXyXyXyXyXyXyXyXyXyXyXyXyXyXyXyXyXyXyXyXyXyXyXyXyXyXyXyXyXyXyXyXyXyXyXyXyXyXyXyXyXyX",
"yXyXyXyXyXyXyXyXyXyXyXyXyXyXyXyXyXyXyXyXyXyXyXyXyXyXyXyXyXyXyXyXyXyXyXyXyXyXyXyXyXyXyXyXyXyXyXyXyXyXyXyXyXyXyXyXyXyXyXyXyXyXyXyX",
"yXyXyXyXyXyXyXyXyXyXyXyXyXyXyXyXyXyXyXyXyXyXyXyXyXyXyXyXyXyXyXyXyXyXyXyXyXyXyXyXyXyXyXyXyXyXyXyXyXyXyXyXyXyXyXyXyXyXyXyXyXyXyXyX",
"yXyXyXyXyXyXyXyXyXyXyXyXyXyXyXyXyXyXyXyXyXyXyXyXyXyXyXyXyXyXyXyXyXyXyXyXyXyXyXyXyXyXyXyXyXyXyXyXyXyXyXyXyXyXyXyXyXyXyXyXyXyXyXyX",
"yXyXyXyXyXyXyXyXyXyXyXyXyXyXyXyXyXyXyXyXyXyXyXyXyXyXyXyXyXyXyXyXyXyXyXyXyXyXyXyXyXyXyXyXyXyXyXyXyXyXyXyXyXyXyXyXyXyXyXyXyXyXyXyX",
"yXyXyXyXyXyXyXyXyXyXyXyXyXyXyXyXyXyXyXyXyXyXyXyXyXyXyXyXyXyXyXyXyXyXyXyXyXyXyXyXyXyXyXyXyXyXyXyXyXyXyXyXyXyXyXyXyXyXyXyXyXyXyXyX",
"yXyXyXyXyXyXyXyXyXyXyXyXyXyXyXyXyXyXyXyXyXyXyXyXyXyXyXyXyXyXyXyXyXyXyXyXyXyXyXyXyXyXyXyXyXyXyXyXyXyXyXyXyXyXyXyXyXyXyXyXyXyXyXyX"
};
